#!OML:ASF E:/inclinewalkrobotboard/Project1/Captureday1/Session1/subject1.ASF
:FULLY-SPECIFIED
:DEGREES
338
root 0 0 0 14.910434753146658 42.52790277619617 -0.0223835995039412
lowerback -10.400374575827534 -4.53341997488568 -4.601896027681113
upperback -11.481954228611295 -5.6250019573821755 8.835664285515682
thorax -5.453739548607674 -2.1008318439327924 12.12319938978344
lowerneck -3.017320630046169 -9.792283019621234 -8.376697287270709
upperneck 32.78685498424639 -12.247510306236379 0.02196315626009193
head 11.897972849444761 -6.355572400720881 -0.19816629033148825
rclavicle -4.301575601051279E-15 4.7733087315040884E-15
rhumerus 160.24548023140056 6.703576510099282 -196.11326106473683
rradius 15.81922650518364
rwrist 84.29222115649877
rhand -17.124341554860578 8.077135601808477
rfingers 7.125020000000012
rthumb 9.067667439053643 -21.805418147533942
lclavicle 3.1787023162794556E-15 -2.8706514388750472E-15
lhumerus 85.00834957882154 33.24865164338645 16.29861468182402
lradius 47.52687599795398
lwrist -18.5431126483296
lhand -9.816471751899098 12.924761156936755
lfingers 7.125019999999981
lthumb 16.118717927525704 42.08220759285915
rfemur 155.1861923515919 -210.79818916139803 -183.576602485169
rtibia 56.283722241715274
rfoot -67.16058007850117 -18.856147679342346
rtoes 60.27910117194831
lfemur -89.10483036611217 22.710198854538426 -53.51033835705978
ltibia 75.3318026199394
lfoot -9.63420212204769 32.64021325923596
ltoes 8.315133090850777
339
root 0 0 0 14.787782291809874 42.52776818075044 0.05246728402270939
lowerback -10.344216778025721 -4.536037303947168 -4.61839914417356
upperback -11.452361212154242 -5.6272619615562185 8.821414875948161
thorax -5.457081018763342 -2.098717080801376 12.116045575154413
lowerneck -3.022117444411423 -9.786695620407885 -8.36347201779287
upperneck 32.7873425899477 -12.237381185606441 0.006994819319548817
head 11.897269086022789 -6.351724705686512 -0.20375841611786694
rclavicle -4.2728756964464515E-15 4.849505396870002E-15
rhumerus 160.00501219658028 6.785235689333277 -196.3133067695027
rradius 15.689046907405436
rwrist 84.45859211427722
rhand -17.12216922542216 8.091327258864212
rfingers 7.125020000000012
rthumb 9.069450824343576 -21.789398482068492
lclavicle 3.347263803372995E-15 -2.6463158156847107E-15
lhumerus 84.98606539725577 33.329061262406825 16.248214906161905
lradius 47.118818542425835
lwrist -18.703514355239484
lhand -10.039910302447572 13.092673592207683
lfingers 7.125019999999979
lthumb 15.903661389465583 42.28622066193134
rfemur 154.9310884381972 -210.5058488112474 -183.39763579204546
rtibia 55.51399101256884
rfoot -68.61378688681444 -18.21490551281515
rtoes 60.19023549197864
lfemur -89.13657592924972 22.70362662351699 -53.637804963546685
ltibia 75.29183451930395
lfoot -9.048291019692787 32.61940208815841
ltoes 8.10693817674336
340
root 0 0 0 14.638917739251129 42.52028458742913 0.14501658444694243
lowerback -10.276378387648839 -4.539110102721333 -4.639471849029219
upperback -11.416451116448965 -5.629907878385376 8.803403970904098
thorax -5.461149378684305 -2.0959881577887503 12.107193801435962
lowerneck -3.028527091358545 -9.77938391299163 -8.346759691619912
upperneck 32.78799493817631 -12.22458916906738 -0.010884116904571695
head 11.896467529284756 -6.3467449928043855 -0.21045363632602165
rclavicle -4.249141193086544E-15 4.934194288513122E-15
rhumerus 159.72734282774314 6.880423499313061 -196.54700045160715
rradius 15.536916149247178
rwrist 84.6518860520489
rhand -17.118412715428814 8.10704857880502
rfingers 7.125020000000012
rthumb 9.072712393280307 -21.771359279639466
lclavicle 3.534529421672927E-15 -2.387133071529965E-15
lhumerus 84.94812376066665 33.42597382821219 16.182269076264998
lradius 46.61399999152587
lwrist -18.900989027009267
lhand -10.313694736547033 13.29800740961635
lfingers 7.125019999999978
lthumb 15.640105115728044 42.53559040574653
rfemur 154.65169556924948 -210.17790109438488 -183.19331255798176
rtibia 54.64271699689304
rfoot -70.20753584095978 -17.480490919877358
rtoes 60.08707377123993
lfemur -89.16796190861942 22.69387079637216 -53.78744431236305
ltibia 75.24504684291075
lfoot -8.370291954934874 32.59464041634215
ltoes 7.862262327158252
341
root 0 0 0 14.456878204725879 42.50145203516965 0.2606157754613836
lowerback -10.19388148666508 -4.54275505439997 -4.666756397406226
upperback -11.37258400000141 -5.63305598274135 8.780421886210299
thorax -5.46616829788063 -2.0924460705621817 12.096216258004482
lowerneck -3.0371282505547494 -9.76972160043116 -8.325438820002736
upperneck 32.78884341282462 -12.20826019749612 -0.03236020394812611
head 11.89553646086398 -6.340232397787743 -0.2185152017406844
rclavicle -4.238237607061595E-15 5.0263637095712005E-15
rhumerus 159.40810484583494 6.9920358004648975 -196.81919428587176
rradius 15.360393196178281
rwrist 84.8745443413832
rhand -17.11225634376214 8.124357499823244
rfingers 7.125020000000012
rthumb 9.078239197222219 -21.75103583124584
lclavicle 3.734426617709131E-15 -2.0915641464724468E-15
lhumerus 84.88307257102352 33.54289546023765 16.095924340510557
lradius 45.987985945290376
lwrist -19.14486384189023
lhand -10.649476043556124 13.548836488407707
lfingers 7.125019999999977
lthumb 15.31680954895173 42.84016239222931
rfemur 154.35753572494463 -209.8224881665925 -182.96523808204373
rtibia 53.685398723782214
rfoot -71.88866243414755 -16.65842624693935
rtoes 59.96857361232483
lfemur -89.19595628231744 22.678852299054334 -53.965293284759184
ltibia 75.18988983208682
lfoot -7.58659657042697 32.5656963754077
ltoes 7.573597641916714
342
root 0 0 0 14.23320214340457 42.46557302581202 0.40603200676932616
lowerback -10.093157768681698 -4.5471215760938986 -4.702426431722093
upperback -11.31879386305236 -5.636868099550347 8.750921391383516
thorax -5.472434970640211 -2.0878421706121637 12.082614528705708
lowerneck -3.0486908343645327 -9.75689101594269 -8.29808780649916
upperneck 32.789873166522355 -12.18727988975477 -0.05820836603224144
head 11.894417578440427 -6.331665946298526 -0.22824218336802482
rclavicle -4.251786958952559E-15 5.123541125949976E-15
rhumerus 159.04486856222127 7.122838748837701 -197.1327743155901
rradius 15.15850240819957
rwrist 85.12708961632524
rhand -17.10264837143979 8.14319894062579
rfingers 7.125020000000012
rthumb 9.087053374401115 -21.72822372004776
lclavicle 3.934048873536291E-15 -1.7617231942468344E-15
lhumerus 84.77262926957705 33.683685425612786 15.983786674434747
lradius 45.21432677237429
lwrist -19.445275467478293
lhand -11.058987009986403 13.853057309344607
lfingers 7.125019999999975
lthumb 14.922445857581048 43.2096091569052
rfemur 154.06671653967874 -209.4570054552408 -182.72035679604377
rtibia 52.676236816574104
rfoot -73.57138978709472 -15.76829192891395
rtoes 59.8332425520769
lfemur -89.21570035297597 22.6554494049425 -54.17859032945358
ltibia 75.12447903034663
lfoot -6.687150106576116 32.53296123071697
ltoes 7.233444691266876
343
root 0 0 0 13.957627467151283 42.4045302435934 0.5897028076819559
lowerback -9.969957223358813 -4.552411072760361 -4.749268985286914
upperback -11.252742323878776 -5.641581189207133 8.71295624193072
thorax -5.480343728987484 -2.0818809930864735 12.065799808272317
lowerneck -3.064253797306435 -9.739860305664964 -8.262964375647659
upperneck 32.790920566625374 -12.160277646090105 -0.08921684873644864
head 11.892995326059193 -6.320390891401618 -0.23994530675558923
rclavicle -4.304021006200331E-15 5.22185518873388E-15
rhumerus 158.6382887238939 7.274653168062759 -197.486620375019
rradius 14.932722411986346
rwrist 85.40703271134956
rhand -17.088422742193803 8.163394522370956
rfingers 7.125020000000012
rthumb 9.100297523183526 -21.70282233298559
lclavicle 4.112681932585128E-15 -1.404364999501408E-15
lhumerus 84.58931455741049 33.85254246423264 15.840893415086079
lradius 44.2677912123911
lwrist -19.8120588133663
lhand -11.5517968261459 14.217066095764322
lfingers 7.1250199999999735
lthumb 14.447755611553463 43.65180294119555
rfemur 153.8056867916635 -209.10808532989174 -182.47233845965349
rtibia 51.66539871524192
rfoot -75.15429912597085 -14.843829059465548
rtoes 59.67748675864888
lfemur -89.22047416841176 22.619343007148764 -54.43530690511095
ltibia 75.04636471666524
lfoot -5.6692074875100396 32.49798138079889
ltoes 6.835640315832232
344
root 0 0 0 13.617366722471614 42.30644345448455 0.8221725428932505
lowerback -9.819115105835284 -4.558914765497272 -4.810756517378992
upperback -11.171591389156028 -5.647559679938453 8.6640786750273
thorax -5.490418571140464 -2.074229084359237 12.045020545656598
lowerneck -3.085279754751914 -9.717360255485504 -8.217992992956807
upperneck 32.79146200670638 -12.125619961674811 -0.12602843803634922
head 11.891039908529118 -6.305605321688545 -0.25389720099610846
rclavicle -4.4084765650819595E-15 5.316805166992066E-15
rhumerus 158.19264472278658 7.447300295304931 -197.8737200047529
rradius 14.6876578344779
rwrist 85.70826008342232
rhand -17.068569622039142 8.1847016095857
rfingers 7.125020000000012
rthumb 9.118974164129222 -21.674843576277283
lclavicle 4.2435222257466864E-15 -1.0303219487398643E-15
lhumerus 84.29519950649525 34.054063500671774 15.664266362160276
lradius 43.12906276999306
lwrist -20.253269194429073
lhand -12.132264026533852 14.644319256767977
lfingers 7.125019999999972
lthumb 13.888484489728707 44.170991682212
rfemur 153.60444441303986 -208.80730410910593 -182.24009756525697
rtibia 50.70847411796368
rfoot -76.55122865461036 -13.927167608024844
rtoes 59.49422868467582
lfemur -89.20241007766354 22.56510665372885 -54.7431501081864
ltibia 74.95215712654743
lfoot -4.540773297113386 32.464020587262766
ltoes 6.377046813498764
345
root 0 0 0 13.195662143806018 42.15328267046216 1.1169184244991115
lowerback -9.634083980229155 -4.567077246564947 -4.891156235966566
upperback -11.07173867855743 -5.655378930653449 8.601147031467214
thorax -5.503361567109399 -2.0645247922515786 12.019209572246542
lowerneck -3.1139345197055395 -9.687838478816055 -8.160733724359087
upperneck 32.79024849328555 -12.081388530363823 -0.16887259370223262
head 11.88811243260215 -6.286333308167611 -0.27025034078618093
rclavicle -4.573673445965984E-15 5.404512239144801E-15
rhumerus 157.71529193479083 7.63789904439658 -198.2807680722464
rradius 14.430918305992117
rwrist 86.02140820355774
rhand -17.04258462131318 8.206963930930659
rfingers 7.125020000000012
rthumb 9.143605641692089 -21.64433969073224
lclavicle 4.298272096120614E-15 -6.521965063992951E-16
lhumerus 83.84375263239937 34.29305295166572 15.454652080614743
lradius 41.79049792223286
lwrist -20.773625282170723
lhand -12.796267761403294 15.134077911461619
lfingers 7.125019999999969
lthumb 13.248534975789562 44.76615100910128
rfemur 153.48798386454945 -208.5835337040027 -182.04276112482097
rtibia 49.853183057417276
rfoot -77.71763934713007 -13.059297463748752
rtoes 59.2734867930962
lfemur -89.1539614726374 22.48653513198287 -55.10832048258274
ltibia 74.83718975526841
lfoot -3.321991010396996 32.43639113412046
ltoes 5.858961073008613
